# xmcd CD database file
#
# Track frame offsets:
#	150
#	14005
#	29429
#	50400
#	64251
#	83104
#	96702
#	113535
#	127178
#	144387
#	160840
#	176752
#	195370
#	207895
#	222042
#	237460
#
# Disc length: 3665 seconds
#
# Revision: 0
# Processed by: cddbd v1.5.2PL0 Copyright (c) Steve Scherf et al.
# Submitted via: CDex 1.79
#
DISCID=e80e4f10
DTITLE=Chris Whitley - Anthology
DYEAR=1900
DGENRE=Blues
TTITLE0=Home Is Where You Get Across [Demo Version]
TTITLE1=Make the Dirt Stick
TTITLE2=Big Sky Country
TTITLE3=Weightless [Daniel Lanois Single Remix]
TTITLE4=Bordertown
TTITLE5=Bliss to Breakdown [Demo Version]
TTITLE6=Aerial [Edit]
TTITLE7=WPL [Alternate Mix]
TTITLE8=Narcotic Prayer [Alternate Mix]
TTITLE9=A Pint of Lotion [Demo Version]
TTITLE10=Guns and Dolls
TTITLE11=Can't Get Off
TTITLE12=Cool Wooden Crosses
TTITLE13=The Wild Country
TTITLE14=Accordingly
TTITLE15=Say Goodbye/Long Way Around [Demo Version]
EXTD=
EXTT0=
EXTT1=
EXTT2=
EXTT3=
EXTT4=
EXTT5=
EXTT6=
EXTT7=
EXTT8=
EXTT9=
EXTT10=
EXTT11=
EXTT12=
EXTT13=
EXTT14=
EXTT15=
PLAYORDER=
